<svg version="1.1" id="图层_1" xmlns="http://www.w3.org/2000/svg" xmlns:xlink="http://www.w3.org/1999/xlink" x="0px" y="0px"
     viewBox="0 0 257 151" style="enable-background:new 0 0 257 151;" xml:space="preserve">
<style type="text/css">
	.st0{fill-rule:evenodd;clip-rule:evenodd;fill:#0075B2;}
	.st1{fill-rule:evenodd;clip-rule:evenodd;fill:#9ED8F5;}
</style>
  <g>
	<path class="st0" d="M3.6,140.8H0v-25.4c0-1.4,0.3-2.4,0.8-3.2c0.6-0.7,1.3-1.1,2.4-1.1c0.7,0,1.4,0.2,2,0.7
		c0.6,0.5,1.1,1.2,1.6,2.2l10.6,22v-24.6H21v25.5c0,1.3-0.3,2.4-0.8,3.1c-0.5,0.7-1.3,1.1-2.3,1.1c-0.8,0-1.5-0.2-2.1-0.7
		c-0.6-0.5-1.1-1.2-1.6-2.2L3.6,116.2V140.8L3.6,140.8z M43.9,140.8L43.9,140.8v-10c0-2.1-0.6-3.8-1.8-5.1c-1.2-1.3-2.7-2-4.6-2
		c-1.9,0-3.4,0.6-4.6,1.9c-1.2,1.3-1.8,3-1.8,5c0,2.1,0.6,3.8,1.9,5.1c1.2,1.3,2.8,2,4.8,2c0.9,0,1.7-0.2,2.6-0.5
		c0.8-0.3,1.7-0.8,2.5-1.4v3.9c-0.8,0.5-1.7,0.8-2.6,1c-0.9,0.2-1.9,0.3-2.9,0.3c-1,0-1.9-0.1-2.8-0.4c-0.9-0.3-1.8-0.7-2.6-1.2
		c-1.4-1-2.6-2.2-3.3-3.7c-0.8-1.5-1.1-3.2-1.1-5c0-3,1-5.5,2.8-7.5c1.9-2,4.3-2.9,7.2-2.9c1.9,0,3.7,0.5,5.3,1.5
		c1.6,1,2.8,2.3,3.7,4c0.4,0.8,0.7,1.6,0.8,2.5c0.2,0.9,0.3,2.3,0.3,4.1v8.5H43.9L43.9,140.8z M54.1,140.8L54.1,140.8v-11
		c0-2.9,0.8-5.2,2.3-7c1.6-1.7,3.6-2.6,6.2-2.6c2.6,0,4.7,0.9,6.2,2.6c1.5,1.7,2.3,4,2.3,7v11h-3.6v-11.6c0-1.6-0.5-2.9-1.4-3.9
		c-0.9-1-2.1-1.5-3.6-1.5c-1.4,0-2.6,0.5-3.6,1.5c-0.9,1-1.4,2.3-1.4,3.9v11.6H54.1L54.1,140.8z M80.7,130.7L80.7,130.7
		c0,2,0.6,3.6,1.9,5c1.3,1.4,2.8,2,4.5,2c1.8,0,3.3-0.7,4.5-2c1.3-1.4,1.9-3,1.9-5c0-1.9-0.6-3.6-1.9-5c-1.2-1.4-2.8-2-4.6-2
		c-1.8,0-3.3,0.7-4.5,2C81.3,127.1,80.7,128.7,80.7,130.7L80.7,130.7z M77,130.7L77,130.7c0-1.4,0.3-2.7,0.8-4
		c0.5-1.3,1.3-2.4,2.3-3.4c1-1,2.1-1.7,3.3-2.2c1.2-0.5,2.5-0.8,3.9-0.8c1.4,0,2.7,0.3,3.9,0.8c1.2,0.5,2.3,1.3,3.3,2.2
		c1,1,1.7,2.1,2.2,3.4c0.5,1.3,0.8,2.6,0.8,4c0,1.4-0.3,2.8-0.8,4c-0.5,1.3-1.3,2.4-2.2,3.4c-1,1-2.1,1.7-3.3,2.2
		c-1.2,0.5-2.5,0.8-3.9,0.8c-1.4,0-2.7-0.3-3.9-0.8c-1.2-0.5-2.3-1.3-3.3-2.2c-1-1-1.7-2.1-2.3-3.4C77.2,133.5,77,132.1,77,130.7
		L77,130.7z M122.4,111.4L122.4,111.4v17.7c0,1.8-0.1,3.2-0.3,4.1c-0.2,0.9-0.5,1.7-0.8,2.5c-0.8,1.7-2.1,3.1-3.7,4
		c-1.6,1-3.4,1.5-5.3,1.5c-2.9,0-5.3-1-7.2-3c-1.9-2-2.9-4.5-2.9-7.5c0-1.4,0.2-2.6,0.7-3.9c0.5-1.2,1.1-2.3,2-3.3
		c0.9-1,2-1.8,3.2-2.3c1.3-0.6,2.6-0.8,3.9-0.8c1,0,2,0.1,2.9,0.3c0.9,0.2,1.8,0.6,2.6,1v3.9c-0.8-0.6-1.7-1.1-2.5-1.4
		c-0.8-0.3-1.7-0.5-2.6-0.5c-1.9,0-3.5,0.7-4.8,2c-1.2,1.3-1.9,3-1.9,5.1c0,2,0.6,3.7,1.8,5c1.2,1.3,2.8,1.9,4.6,1.9
		c1.9,0,3.4-0.7,4.6-2c1.2-1.3,1.8-3,1.8-5.1v-19.3H122.4L122.4,111.4z M129.2,140.8L129.2,140.8v-20.1h3.6v20.1H129.2L129.2,140.8z
		 M128.8,115L128.8,115c0-0.6,0.2-1.1,0.6-1.5c0.4-0.4,0.9-0.6,1.6-0.6c0.6,0,1.1,0.2,1.6,0.6c0.4,0.4,0.6,0.9,0.6,1.6
		c0,0.6-0.2,1.2-0.6,1.6c-0.4,0.4-0.9,0.6-1.6,0.6c-0.6,0-1.1-0.2-1.5-0.7C129.1,116.1,128.8,115.6,128.8,115z"/>
    <path class="st1" d="M159.1,139.6c0,3.3-0.9,5.8-2.8,7.7c-1.8,1.9-4.4,2.8-7.5,2.8c-1,0-2-0.1-3-0.3c-1.1-0.2-2.2-0.5-3.3-0.9
		l0.8-3.4c1.2,0.4,2.3,0.7,3.2,0.9c0.9,0.2,1.7,0.3,2.5,0.3c2.1,0,3.7-0.6,4.8-1.8c1.2-1.2,1.8-2.9,1.8-5v-9.2
		c0-2.1-0.6-3.8-1.8-5.1c-1.2-1.3-2.7-2-4.6-2c-1.9,0-3.4,0.6-4.6,1.9c-1.2,1.3-1.8,3-1.8,5c0,2.1,0.6,3.8,1.9,5.1
		c1.2,1.3,2.8,2,4.8,2c0.9,0,1.7-0.2,2.6-0.5c0.8-0.3,1.7-0.8,2.5-1.4v3.9c-0.8,0.5-1.7,0.8-2.6,1c-0.9,0.2-1.9,0.3-2.9,0.3
		c-1,0-1.9-0.1-2.8-0.4c-0.9-0.3-1.8-0.7-2.6-1.2c-1.4-1-2.6-2.2-3.3-3.7c-0.8-1.5-1.1-3.2-1.1-5c0-3,1-5.5,2.8-7.5
		c1.9-2,4.3-2.9,7.2-2.9c1.9,0,3.7,0.5,5.3,1.5c1.6,1,2.8,2.3,3.7,4c0.4,0.8,0.7,1.6,0.8,2.5c0.2,0.9,0.3,2.3,0.3,4.1V139.6
		L159.1,139.6z M165.7,140.8L165.7,140.8v-11.6c0-2.7,0.7-4.9,2.2-6.5c1.4-1.6,3.4-2.4,5.8-2.4c1.2,0,2.4,0.3,3.5,0.8
		c1.1,0.5,2,1.3,2.7,2.3c0.8-1,1.7-1.8,2.8-2.3c1-0.5,2.2-0.8,3.4-0.8c2.4,0,4.3,0.8,5.8,2.4c1.4,1.6,2.2,3.8,2.2,6.5v11.6h-3.6
		v-12.3c0-1.4-0.4-2.5-1.2-3.4c-0.8-0.9-1.9-1.3-3.2-1.3c-1.3,0-2.4,0.4-3.2,1.3c-0.8,0.9-1.2,2-1.2,3.4v12.3h-3.6v-12.3
		c0-1.4-0.4-2.5-1.2-3.4c-0.8-0.9-1.9-1.3-3.2-1.3c-1.3,0-2.4,0.4-3.2,1.3c-0.8,0.9-1.2,2-1.2,3.4v12.3H165.7L165.7,140.8z
		 M200.6,111.4L200.6,111.4h3.6v19.3c0,2.1,0.6,3.8,1.8,5.1c1.2,1.3,2.7,2,4.6,2c1.9,0,3.5-0.7,4.7-2c1.2-1.3,1.8-3,1.8-5.2
		c0-2-0.6-3.7-1.9-5c-1.2-1.3-2.8-1.9-4.8-1.9c-0.9,0-1.7,0.1-2.6,0.4c-0.8,0.3-1.7,0.8-2.5,1.4v-3.9c0.8-0.5,1.7-0.8,2.6-1
		c0.9-0.2,1.9-0.3,2.9-0.3c1,0,1.9,0.1,2.9,0.4c0.9,0.3,1.8,0.7,2.6,1.2c1.5,1,2.6,2.3,3.3,3.8c0.8,1.5,1.2,3.1,1.2,4.9
		c0,3-1,5.5-2.9,7.5c-1.9,2-4.3,3-7.2,3c-1.9,0-3.7-0.5-5.3-1.5c-1.6-1-2.8-2.3-3.7-4c-0.4-0.8-0.7-1.6-0.8-2.5
		c-0.2-0.9-0.3-2.3-0.3-4.1V111.4L200.6,111.4z M226.8,140.8L226.8,140.8v-20.1h3.6v20.1H226.8L226.8,140.8z M226.4,115L226.4,115
		c0-0.6,0.2-1.1,0.6-1.5c0.4-0.4,0.9-0.6,1.6-0.6c0.6,0,1.1,0.2,1.6,0.6c0.4,0.4,0.6,0.9,0.6,1.6c0,0.6-0.2,1.2-0.6,1.6
		c-0.4,0.4-0.9,0.6-1.6,0.6c-0.6,0-1.1-0.2-1.5-0.7C226.6,116.1,226.4,115.6,226.4,115L226.4,115z M240.2,130.7L240.2,130.7
		c0,2,0.6,3.6,1.9,5c1.3,1.4,2.8,2,4.5,2c1.8,0,3.3-0.7,4.5-2c1.3-1.4,1.9-3,1.9-5c0-1.9-0.6-3.6-1.9-5c-1.2-1.4-2.8-2-4.6-2
		c-1.8,0-3.3,0.7-4.5,2C240.8,127.1,240.2,128.7,240.2,130.7L240.2,130.7z M236.5,130.7L236.5,130.7c0-1.4,0.3-2.7,0.8-4
		c0.5-1.3,1.3-2.4,2.3-3.4c1-1,2.1-1.7,3.3-2.2s2.5-0.8,3.9-0.8c1.4,0,2.7,0.3,3.9,0.8c1.2,0.5,2.3,1.3,3.3,2.2c1,1,1.7,2.1,2.2,3.4
		c0.5,1.3,0.8,2.6,0.8,4c0,1.4-0.3,2.8-0.8,4c-0.5,1.3-1.3,2.4-2.2,3.4c-1,1-2.1,1.7-3.3,2.2c-1.2,0.5-2.5,0.8-3.9,0.8
		c-1.4,0-2.7-0.3-3.9-0.8c-1.2-0.5-2.3-1.3-3.3-2.2c-1-1-1.7-2.1-2.3-3.4C236.7,133.5,236.5,132.1,236.5,130.7z"/>
</g>
  <g>
	<polygon class="st0" points="151.4,95 108.3,95 72.9,0.3 116,0.3 	"/>
    <polygon class="st1" points="37.5,95 80.6,95 116,0.3 73,0.3 	"/>
    <polygon class="st1" points="108.4,95 151.5,95 186.9,0.3 143.9,0.3 	"/>
</g>
  <g>
	<path class="st1" d="M207.2,68.7c0.2,1.2,0.4,2.2,0.4,3.1c0,9.1-6.7,16.6-15,16.6c-3.7,0-7.1-1.5-9.7-3.9c2.3,1.5,5,2.3,7.8,2.3
		C199.5,86.8,206.7,78.8,207.2,68.7z"/>
    <path class="st0" d="M193.8,32.2c0,0,19.4,33.2,19.4,43.7c0,10.6-9,19.1-20,19.1c-11.1,0-20-8.6-20-19.1
		C173.2,65.3,193.8,32.2,193.8,32.2L193.8,32.2z M193.7,36.4L193.7,36.4c0,0-17.9,28.7-17.9,37.8c0,9.1,7.8,16.6,17.3,16.6
		s17.3-7.4,17.3-16.6C210.5,65.1,193.7,36.4,193.7,36.4z"/>
    <path class="st1" d="M183.6,67.2c0.1,0,0.1,0.1,0.2,0.1c0.7,0.1,2.7-0.8,4.8-2.3c1.6-1.1,2.9-2.3,3.5-3c-0.2-0.7-0.2-1.6,0.2-2.3
		c0.8-1.5,2.6-2.2,4.1-1.4c1.5,0.8,2.2,2.6,1.4,4.1c-0.3,0.6-0.7,1-1.2,1.3c-0.2,0.9-0.1,2.8,0.4,4.9c0.6,2.5,1.4,4.5,2,4.9
		c0.1,0,0.3,0,0.4,0.1c0.6-0.4,1.5-1.6,2.2-3.1c0.8-1.6,1.2-3.1,1.1-3.8c-0.5-0.6-0.6-1.5-0.2-2.2c0.5-1.1,1.8-1.5,2.9-1
		c1.1,0.5,1.5,1.8,1,2.9c-0.3,0.6-0.8,1-1.4,1.1l0,0l0,0c-0.1,0-0.3,0.1-0.4,0.1c-0.6,0.3-1.6,1.6-2.4,3.2c-0.8,1.6-1.2,3-1.1,3.7
		c1.1,1.1,1.5,2.8,0.8,4.3c-0.9,1.8-3.1,2.6-4.9,1.7c-1.8-0.9-2.6-3.1-1.7-4.9c0.4-0.7,0.9-1.3,1.6-1.6c0.3-0.7,0.2-2.8-0.3-5.1
		c-0.5-2.1-1.2-3.9-1.7-4.6c-0.3,0-0.7-0.1-1-0.3c-0.3-0.1-0.5-0.3-0.7-0.5c-1,0.3-2.4,1.1-4,2.2c-2.2,1.5-3.7,3.1-3.8,3.7
		c0,0.1,0,0.1,0,0.2c0,0,0,0,0,0l0,0c0.1,0.5,0,1-0.3,1.5c-0.7,1.4-2.3,1.9-3.7,1.3c-1.4-0.7-1.9-2.3-1.3-3.7
		C180.6,67.1,182.3,66.5,183.6,67.2z"/>
</g>
</svg>
